<?xml version="1.0" encoding="utf-8"?>
<!-- Generator: Adobe Illustrator 15.1.0, SVG Export Plug-In . SVG Version: 6.00 Build 0)  -->
<!DOCTYPE svg PUBLIC "-//W3C//DTD SVG 1.1//EN" "http://www.w3.org/Graphics/SVG/1.1/DTD/svg11.dtd">
<svg version="1.1" id="Layer_1" xmlns="http://www.w3.org/2000/svg" xmlns:xlink="http://www.w3.org/1999/xlink" x="0px" y="0px"
	 width="270px" height="72px" viewBox="0 0 270 72" enable-background="new 0 0 270 72" xml:space="preserve">
<g>
	<g>
		<rect x="240.951" y="15.589" fill="#F47D5E" width="9.859" height="41.48"/>
		<g>
			<path fill="#F47D5E" d="M228.521,57.07l-1.903-5.443h-16.465l-1.867,5.443h-9.816l16.707-41.482h7.846l15.822,41.482H228.521z
				 M223.84,43.686l-5.535-15.831l-5.43,15.831H223.84z"/>
			<path fill="#FFFFFF" d="M195.322,52.169c-0.301,0.041-0.592,0.061-0.871,0.061c-0.479,0-0.92-0.12-1.318-0.36
				c-0.4-0.239-0.861-0.69-1.381-1.35c-0.52-0.66-1.221-1.63-2.1-2.91l-2.479-3.652c1.532-0.726,2.761-1.669,3.648-2.859
				c1.059-1.418,1.59-3.09,1.59-5.01c0-2.76-0.98-4.85-2.939-6.27c-1.961-1.42-4.721-2.13-8.281-2.13h-11.16v28.38h6.541V45.509
				h2.52c0.717,0,1.405-0.026,2.069-0.076l2.79,4.757c0.881,1.479,1.689,2.7,2.432,3.659c0.738,0.961,1.568,1.681,2.488,2.16
				c0.92,0.48,2.061,0.721,3.42,0.721c0.68,0,1.381-0.061,2.102-0.18c0.719-0.121,1.52-0.321,2.398-0.601l-0.719-3.899
				C195.871,52.09,195.621,52.13,195.322,52.169z M176.572,40.649v-7.5h4.02c1.641,0,2.92,0.34,3.84,1.02
				c0.92,0.682,1.381,1.621,1.381,2.82c0,1.121-0.49,2.01-1.471,2.67s-2.33,0.99-4.051,0.99H176.572z"/>
		</g>
	</g>
	<path fill="#D1D2D3" d="M66.332,56.069v-28.38h7.2v28.38H66.332z"/>
	<path fill="#D1D2D3" d="M105.473,52.05c-0.201,0.04-0.45,0.08-0.75,0.119c-0.301,0.041-0.591,0.061-0.87,0.061
		c-0.479,0-0.921-0.12-1.32-0.36c-0.4-0.239-0.86-0.69-1.38-1.35c-0.521-0.66-1.221-1.63-2.1-2.91l-2.478-3.652
		c1.532-0.726,2.76-1.669,3.648-2.859c1.059-1.418,1.59-3.09,1.59-5.01c0-2.76-0.98-4.85-2.939-6.27
		c-1.961-1.42-4.721-2.13-8.281-2.13h-11.16v28.38h6.541V45.509h2.52c0.717,0,1.405-0.026,2.068-0.076l2.792,4.757
		c0.88,1.479,1.688,2.7,2.43,3.659c0.739,0.961,1.569,1.681,2.49,2.16c0.919,0.48,2.06,0.721,3.42,0.721
		c0.68,0,1.38-0.061,2.101-0.18c0.719-0.121,1.52-0.321,2.399-0.601L105.473,52.05z M85.973,40.649v-7.5h4.02
		c1.64,0,2.92,0.34,3.84,1.02c0.92,0.682,1.381,1.621,1.381,2.82c0,1.121-0.49,2.01-1.471,2.67s-2.33,0.99-4.05,0.99H85.973z"/>
	<path fill="#FFFFFF" d="M119.154,27.689c-3.56,0-6.32,0.71-8.28,2.13c-1.959,1.42-2.94,3.51-2.94,6.27
		c0,1.92,0.531,3.592,1.591,5.01c0.887,1.189,2.116,2.133,3.648,2.859l-2.478,3.652c-0.88,1.28-1.579,2.25-2.101,2.91
		c-0.52,0.659-0.979,1.11-1.379,1.35c-0.4,0.24-0.841,0.36-1.32,0.36c-0.279,0-0.57-0.02-0.87-0.061
		c-0.3-0.039-0.55-0.079-0.75-0.119l-0.72,3.899c0.88,0.279,1.68,0.479,2.399,0.601c0.72,0.119,1.421,0.18,2.101,0.18
		c1.359,0,2.5-0.24,3.42-0.721c0.92-0.479,1.75-1.199,2.49-2.16c0.74-0.959,1.55-2.18,2.43-3.659l2.792-4.757
		c0.663,0.05,1.351,0.076,2.067,0.076h2.521v10.561h6.54v-28.38H119.154z M120.055,40.649c-1.72,0-3.07-0.33-4.051-0.99
		c-0.979-0.66-1.47-1.549-1.47-2.67c0-1.199,0.46-2.139,1.38-2.82c0.921-0.68,2.201-1.02,3.84-1.02h4.021v7.5H120.055z"/>
	<polygon fill="#D1D2D3" points="59.452,19.453 59.004,19.453 55.944,19.453 53.997,19.453 52.106,19.453 51.047,19.453 
		40.558,42.1 30.069,19.453 29.011,19.453 27.12,19.453 25.172,19.453 22.112,19.453 21.665,19.453 19.551,56.069 19.552,56.069 
		25.951,56.069 26.617,56.069 27.425,29.303 38.305,53.176 38.694,53.176 42.423,53.176 42.812,53.176 53.692,29.303 54.499,56.069 
		55.166,56.069 61.564,56.069 61.565,56.069 	"/>
</g>
<g>
	<path fill="none" d="M155.908,35.674c-0.558-0.777-1.201-1.438-1.957-1.955c-1.199-0.82-2.58-1.23-4.139-1.23
		c-1.4,0-2.65,0.359-3.75,1.08c-1.102,0.721-1.961,1.75-2.58,3.09c-0.621,1.341-0.931,2.951-0.931,4.83
		c0,1.152,0.136,2.21,0.377,3.195c3.187,0.806,7.631-2.709,9.008-3.857c1.08-1.186,3.139-3.448,4.289-4.713
		c-0.004-0.005-0.008-0.01-0.012-0.015c-0.945,1.037-2.171,2.38-2.171,2.38"/>
	<path fill="#FFFFFF" d="M163.463,34.319c-1.301-2.18-3.082-3.9-5.342-5.16s-4.809-1.89-7.648-1.89c-3,0-5.671,0.681-8.011,2.04
		s-4.17,3.17-5.489,5.43c-1.32,2.26-1.98,4.75-1.98,7.471c0,2.639,0.639,5.039,1.92,7.199c1.279,2.16,3.049,3.881,5.311,5.16
		c2.259,1.281,4.809,1.92,7.648,1.92s5.439-0.63,7.801-1.891c2.359-1.26,4.24-3,5.641-5.219c1.398-2.221,2.1-4.771,2.1-7.65
		C165.412,38.97,164.762,36.5,163.463,34.319z M156.951,47.13c-0.6,1.319-1.439,2.34-2.52,3.06s-2.359,1.08-3.84,1.08
		c-1.561,0-2.939-0.399-4.14-1.2c-0.253-0.169-0.489-0.361-0.72-0.56c-1.835,0.507-3.743,2.328-3.577,2.146
		c0.009-0.01,1.38-1.509,2.733-2.989c-0.004-0.004-0.008-0.007-0.012-0.012c2.481-2.71,5.929-6.476,7.076-7.729
		c-0.497,0.447-0.79,0.752-0.722,0.677c0.004-0.004,0.283-0.312,0.705-0.775c-1.377,1.148-5.821,4.663-9.008,3.857
		c-0.241-0.985-0.377-2.043-0.377-3.195c0-1.879,0.31-3.489,0.931-4.83c0.619-1.34,1.479-2.369,2.58-3.09
		c1.1-0.721,2.35-1.08,3.75-1.08c1.559,0,2.939,0.41,4.139,1.23c0.756,0.516,1.399,1.178,1.957,1.955
		c0.859-0.317,1.457-0.837,1.386-0.758c-0.004,0.004-0.487,0.535-1.08,1.184c0.004,0.005,0.008,0.01,0.012,0.015
		c-1.15,1.265-3.209,3.527-4.289,4.713c0.326-0.272,0.484-0.414,0.408-0.331c-0.004,0.004-0.148,0.162-0.392,0.428
		c1.219-1.097,3.694-3.05,5.334-2.5c0.373,1.184,0.564,2.503,0.564,3.965C157.852,44.229,157.553,45.81,156.951,47.13z"/>
	<path fill="#FFFFFF" d="M151.953,40.925c0.243-0.266,0.388-0.424,0.392-0.428c0.076-0.083-0.082,0.059-0.408,0.331
		c-0.422,0.463-0.701,0.771-0.705,0.775C151.163,41.678,151.456,41.373,151.953,40.925z"/>
</g>
</svg>
